<svg width="512" height="512" viewBox="0 0 512 512" xmlns="http://www.w3.org/2000/svg">
  <defs>
    <linearGradient id="bg" x1="0%" y1="0%" x2="100%" y2="100%">
      <stop offset="0%" style="stop-color:#0a0e1a;stop-opacity:1" />
      <stop offset="100%" style="stop-color:#111827;stop-opacity:1" />
    </linearGradient>
    <linearGradient id="icon" x1="0%" y1="0%" x2="100%" y2="100%">
      <stop offset="0%" style="stop-color:#3b82f6;stop-opacity:1" />
      <stop offset="100%" style="stop-color:#8b5cf6;stop-opacity:1" />
    </linearGradient>
  </defs>
  
  <!-- Background -->
  <rect width="512" height="512" fill="url(#bg)" rx="80"/>
  
  <!-- Parking icon -->
  <g transform="translate(128, 128)">
    <!-- Car -->
    <rect x="40" y="120" width="176" height="80" rx="20" fill="url(#icon)" opacity="0.8"/>
    <rect x="60" y="140" width="40" height="40" rx="8" fill="white" opacity="0.9"/>
    <rect x="156" y="140" width="40" height="40" rx="8" fill="white" opacity="0.9"/>
    
    <!-- Wheels -->
    <circle cx="80" cy="200" r="20" fill="#1f2937"/>
    <circle cx="176" cy="200" r="20" fill="#1f2937"/>
    <circle cx="80" cy="200" r="12" fill="#374151"/>
    <circle cx="176" cy="200" r="12" fill="#374151"/>
    
    <!-- P letter -->
    <rect x="100" y="60" width="20" height="100" fill="white"/>
    <rect x="100" y="60" width="60" height="20" fill="white"/>
    <rect x="100" y="100" width="40" height="20" fill="white"/>
    <rect x="140" y="80" width="20" height="40" fill="white"/>
  </g>
  
  <!-- Decorative elements -->
  <circle cx="80" cy="80" r="4" fill="#3b82f6" opacity="0.6"/>
  <circle cx="432" cy="120" r="6" fill="#8b5cf6" opacity="0.4"/>
  <circle cx="400" cy="400" r="3" fill="#3b82f6" opacity="0.5"/>
</svg>
